
<svg width="250" height="250" viewBox="0 0 250 250" xmlns="http://www.w3.org/2000/svg">
  <defs>
    <radialGradient id="bg" cx="50%" cy="50%" r="50%">
      <stop offset="0%" style="stop-color:#3a3a3f;stop-opacity:1" />
      <stop offset="100%" style="stop-color:#1a1a1f;stop-opacity:1" />
    </radialGradient>
    <radialGradient id="face" cx="50%" cy="45%" r="35%">
      <stop offset="0%" style="stop-color:#8B4513;stop-opacity:1" />
      <stop offset="100%" style="stop-color:#654321;stop-opacity:1" />
    </radialGradient>
  </defs>
  
  <!-- Background circle -->
  <circle cx="125" cy="125" r="125" fill="url(#bg)"/>
  
  <!-- Monkey face base -->
  <ellipse cx="125" cy="140" rx="70" ry="75" fill="url(#face)"/>
  
  <!-- Ears -->
  <ellipse cx="80" cy="110" rx="25" ry="30" fill="#654321"/>
  <ellipse cx="170" cy="110" rx="25" ry="30" fill="#654321"/>
  <ellipse cx="80" cy="110" rx="15" ry="20" fill="#D2B48C"/>
  <ellipse cx="170" cy="110" rx="15" ry="20" fill="#D2B48C"/>
  
  <!-- Eyes -->
  <ellipse cx="105" cy="125" rx="12" ry="15" fill="white"/>
  <ellipse cx="145" cy="125" rx="12" ry="15" fill="white"/>
  <circle cx="105" cy="125" r="8" fill="black"/>
  <circle cx="145" cy="125" r="8" fill="black"/>
  <circle cx="107" cy="122" r="3" fill="white"/>
  <circle cx="147" cy="122" r="3" fill="white"/>
  
  <!-- Nose area -->
  <ellipse cx="125" cy="150" rx="20" ry="25" fill="#D2B48C"/>
  
  <!-- Nostrils -->
  <ellipse cx="120" cy="148" rx="3" ry="4" fill="#654321"/>
  <ellipse cx="130" cy="148" rx="3" ry="4" fill="#654321"/>
  
  <!-- Mouth -->
  <path d="M 110 170 Q 125 180 140 170" stroke="#654321" stroke-width="2" fill="none"/>
  
  <!-- Crown/accent -->
  <circle cx="125" cy="85" r="8" fill="#ff7d1a"/>
  <polygon points="125,75 130,85 135,80 125,90 115,80 120,85" fill="#ff7d1a"/>
</svg>
